<svg xmlns="http://www.w3.org/2000/svg" width="411.51" height="104.28" viewBox="0 0 1247 316">
  <defs>
    <style>
      .cls-1 {
        fill: #fff;
        stroke: #000;
        stroke-width: 1px;
        fill-rule: evenodd;
      }
    </style>
  </defs>
  <path id="Forma_1" data-name="Forma 1" class="cls-1" d="M219,111v8l3-1v-1h2q0.5-1,1-2h2q0.5-1,1-2h2q0.5-1,1-2l4-1q0.5-1,1-2h2q0.5-1,1-2l4-1q0.5-1,1-2h2q0.5-1,1-2l4-1V99l3-1,1-2h2l1-2h2l3-7c1.77-1.385,5.626-1.048,8-2,4.379-1.756,8.246-4.349,14-5-0.739,3.257-3.017,5.879-5,8l-2,1v2l-2,1v1l-2,1-2,4h-9c0.285,6.468.977,14.225,1,22h1c1.351-2.115,3.331-1.963,4-3v-3h1v-2h1v-1h1v-1l6-1c4.895-2.119,10.522-5.361,17-6v3l-8,7v2h-1c-2.128,2.531-5.048,4.4-6,8h-9q0.5,24.5,1,49h-1v11h-1v8h-1v5h-1v5h-1v5c-7.363,21.717-13.864,39.866-31,52l-2,3h-2l-1,2c-6.6,4.159-22.464,9.181-33,6h-5c-8.7-2.8-16.362-6.482-24-10v4h1q0.5,3,1,6h1l2,6h1v2h1v2h1v2h1v2h1l1,3h1c0.475,1.95-.573,1.326-1,2v1c-3.041,1.679-7.693-1.018-10,1,2.336,2.452,1.324,6.807,1,10h-2v1c-1.4.188,0.384-.707-1-1h-6c1.716,4.324.614,5.488-1,9-5.33.621-16.25,2.793-20-1h-1v-3h-1c-0.04-.375.9-2.247,1-4a34.218,34.218,0,0,1-8-1v-1h-1V289h-1c-1.593-1.485-5.892-1.092-9-1l1-3h1v-2h1v-2l2-1,3-9h1v-2h1l3-10h-1v1h-2l-1,2h-2v1h-2l-1,2h-3v1h-2v1h-3v1h-3v1h-4v1h-6v1H97v-1H90v-1H86v-1l-6-1v-1l-6-2v-1l-4-1-1-2H67l-4-5H61l-1-2-4-3v-2l-4-3v-2l-2-1v-2l-2-1-1-4H46l-2-6H43v-3H42v-2H41v-3H40v-3c-9.139-23.269-13.625-63.585-8-95H23l-5-7-3-2v-2l-2-1c-2.2-2.337-4.146-4.267-5-8l24,8,1,3h1c1.621,3.307-1.52,2.716,3,4v1h1v-5c2.089-2.285,1.1-10.884,1-15H32c-1.4-2.45-3.742-3.257-5-5V92l-4-3V87l-2-1-3-5h5c2.056,2.047,13,5.6,17,6l1,5h1c2.172,2.547,5.164,3.027,8,5l2,3h2l1,2h2l1,2,3,1v1l4,1,1,2,17,9,1-6c-5.848-2.014-12.422-2.683-14-9-1.86-1.835-2.874-7.35-3-11h1V89l2-1,5-6H71v1H67v1c-10.091,3.41-22.091-1.309-24-9,2.316-.875,4.407-1.017,8-1l-1-4H49c-1.272,1.788-1.659,2.225-5,2V71H43l-1,2-5,1V73H36c-2.978,1.44-2.994,2.855-8,3V74l-3,1-1,2H22v1l-3-2v1H17v1c-3.434,1.779-4.8,2.838-10,3,2.009-9.07,11.363-14.3,18-19l2-3,3-1,6-7h2l1-2,5-4,4-5h2l2-3h2l2-3h2l1-2h2l1-2,3-1V28l4-1,1-2,4-1V23l3-1,1-2h2l3-4,9-3V12h3V11c4.666-1.835,23.458-6.236,31-4V8l6,1a21.882,21.882,0,0,0,4,5v7c4.268,0.719,6.208.428,10,1l1,3,2,1v2h1v5h1v1l9,1,1,2,5,1,1-3c1.314-1.657.093-6.513-1-9h-1V22h-1c-1.166-4.11,1.439-6.933,2-10,2.552-1.523,4.8-3.968,8-5h7V6c1.686-.292,1.731.939,2,1h9V8h5V9h4v1h3v1h3v1h3v1l4,1v1h2l1,2h2l1,2h2l2,3h2l1,2h2v1l3,1,1,2h2l2,3h2l1,2h2l2,3h2l1,2h2l2,3h2l3,4h2l3,4h2l4,5h2l2,3h1l1,2h2l5,6h2l1,2c3.833,3.629,9.307,7.339,10,14h-1v1l-6-2-2-3h-3V76l-5,1V76h-2l-1-2c-1.221.014-2.608,1.863-5,1V74l-3-1V72h-1v1c-2.748,1.868-2.147,3.656-4,6l-4,2-1,2h-2c-8.537,4.432-15.16.625-23-1v1c1.94,1.013,5.248,3.96,6,6,2.158,5.856-3.723,18.807-6,20h-2C226.136,111.181,223.2,111.1,219,111ZM434,34a20.27,20.27,0,0,1-7-3l-1-2h-2V28l-6-2V25h-3V24l-11-1V22c-5.21-1.453-13.783.94-17,2h-4v1h-2v1l-6,2-2,3-6,5v2h-1v2h-1q-1,3-2,6h-1q-0.5,4.5-1,9h-1c-1.411,4.933-.027,19.489,1,23v6h1v3h1v3h1v2h1v2l2,1v2l3,2v2l3,1,2,3h2v1l6,2v1h3v1h6v1c6.607,1.86,19.8-.634,24-2,3.2-1.041,5.839.032,8-2h1V76H397V63h43v55h-1v1c-3.764.438-5.3,2.037-8,3l-7,1v1h-5c-5.764,1.733-11.963,2-20,2H387l-17-5v-1h-2l-1-2h-2l-1-2h-2l-3-4-7-6v-2l-2-1v-2h-1q-1-3-2-6h-1q-0.5-3-1-6h-1V85h-1V80h-1V69h-1q1-10.5,2-21h1V45h1V41h1V39h1V36h1V34h1V32l2-1V29l2-1V26l4-3,4-5h2l1-2,3-1V14h2V13l4-1V11l6-1V9h4V8h5V7c5.884-1.679,26.125.612,30,2v1h3v1h3v1h3v1h2v1h2l1,2h2l2,3h2c1.111,0.98.73,2.028,1,4C436.84,24.842,434.371,30.306,434,34ZM573,8V56h1V54l6-5V48h2l1-2c2.264-1.386,5.242-1.031,8-2V43h10c11.417,0.035,17.47,4.178,23,10l2,1v2l2,1v2l2,1v2h1q1,5,2,10c1.263,3.989,3.816,12.766,2,19h-1v6h-1v4h-1v3h-1v3h-1v2l-2,1v2l-2,1v2l-2,1-3,4h-2q-0.5,1-1,2h-2v1h-2v1h-3v1h-3v1H591c-5.922-1.921-15.423-6.935-17-13h-1v12H556V9C560.05,7.489,567.386,7.951,573,8Zm79,0h19V26H652V8Zm494,0V125h-16V112h-1v2q-3.495,3-7,6c-0.33.667-.67,1.333-1,2h-2v1h-2v1h-3v1h-3v1c-4.29,1.344-13.22-.095-16-1l-9-2c-0.33-.667-0.67-1.333-1-2h-2q-4.995-5.5-10-11c-0.33-1.333-.67-2.667-1-4h-1c-0.33-2-.67-4-1-6h-1V96h-1V86h-1V82h1V73h1V69h1V66h1V63c5.03-11.3,21-25.19,40-19h4v1l4,1v1h2c0.67,1,1.33,2,2,3h2c0.33,1,.67,2,1,3l3,2V9C1133.05,7.489,1140.39,7.951,1146,8ZM113,14v2h3v1h-1v1h-4V17l-6,1c-0.22-.046-0.354-1.274-2-1v1H98V16c-6.091-.227-9.466.539-10,6H86c-2.285,2.679-4.421,2.245-5,7H77c0.644-2.739,1.309-2.276,2-5h2c1.973-3,2.825-.941,4-5,1.135-.844.145,0.127,1-1H84c-1.8,2.676-4.292,3.168-7,5l-1,2H74l-1,2H71l-1,2H68l-1,2H65l-1,2-4,1-2,3-3,1v1H53l-3,4H48v1l-5,4v2c5.467-.619,5.493-3.735,10-5v2c3.982-.841,4.373-2.995,8-4v1c-1.388.722-5,6-5,6h2l1-4c1.139,1.139.4,0,1,2,1.5-.059,5.12.8,5-1h1v2a29.371,29.371,0,0,0,7-1l-1,3h6c1.139-1.139,0-.4,2-1v1c-1.139,1.139-.4,0-1,2H78V52l-6,1c-1.4-.2.372-0.658-1-1H67v1l-3-1V50l-3,1,1,2,3,1v4c-5.208-1.8-3.465.718-8,2V59a3.983,3.983,0,0,0,2-2H54c-1.828,1.772-6.225,2.037-10,2v3l6-2c-0.161,1.405.254,0.346-1,1,0.686,2.281,2.118,1.926,5,2V62l3-1v2l6-2,1-2,2,1c2.862-1.764.383-3.25,6-4v2l-8,4h2v2l3-1V62h2l1-2h2V59l5,1,2-3c3.8-1.828,4.185,2,7-2H87V54c-2.422,1.169-5.95,3.515-8,2H77V53h1c2.681,2.476,7.592-.846,10-2,0.6,2.018-.225.867,1,2v1l3-1s0.132,0.73,2,1v5l3,1,1-4h2c-1.076,2.955-1.018,2.065,0,5l4-3V57c0.243-.139,3.493-0.786,4-1-1.72-2.135-2.033-.566-3-4-3.2-.825-2.9-1.179-3-5,1.361-1.166,1.528-1.825,2-4h1v4h-1c-0.895,1.824.688,3.1,1,4a7.169,7.169,0,0,1,4,1V51c1.016-.771.984-1.229,2-2v7h1V55h1q0.5-3,1-6h1c-0.1,6.242,1.079,9.589,2,14,5.109-1.363,2.351.589,6,3V62c-2.963-3.184.532-15.112,1-19l-3,1V43h-1c-1.243-2.137,1.169-5.162,1-6h-1c-0.852-3.149-.425-1.847,0-5h-5l-1-2s2.153-.181,1-1h-2V28h-1v1h-5V24h1v2h4V25h1l1,2h1V26l3,1c-0.945,1.8-1.385,1.575-2,4h4l2-4h1v4c-1.139,1.139-.4,0-1,2h2c0.674-5.61,2.359-3.2,4-6V24h1l1-3-6,1V21c1.139-1.139.4,0,1-2h-3V17l-4,1a11.876,11.876,0,0,1,1-5h1v3h1V15h3v2h3c-0.054,1.413-.758-0.393-1,1-1.889.86,2,1,2,1V15c-1.881-.833-2.921-1.323-4-3h2v1c2.613,0.624,2.846,1.06,4,3h1c1.206,1.878.255,4.27,0,6h2c0.44-4.442.754-4.795,0-9-1.045-.584-1.608-1.764-2-2h-2V10h-5c-5.679-1.679-13.918-.933-19,1,1.195,1.559,4.192,1.793,2,4h2V14h4Zm63,7c-0.574-2.444-1.047-2.206-2-4l3,1V17c1.139-1.139.4,0,1-2l4,1V14h1v1h1v3h-3V17c-0.9-1.87-1,2-1,2h-3c-0.108,2.6-.2,3.444-1,5h-1c-0.589,1.662.962,1.817,1,2,0.351,1.687-.946,1.75-1,2q0.5,4,1,8l-2,1v1h1q-0.5,2.5-1,5a15.68,15.68,0,0,1-6,1c-0.033,5.13-1.313,5.09-3,8h5V49h1c1.139,1.139,0,.4,2,1V46h2q0.5-2.5,1-5h1V29h1V27c1.139,1.139.4,0,1,2h1v1h-1v6h1v1h-1q0.5,2,1,4l-2,1v2h-1c0.227,1.083,1.886,1.995,1,4l-2,1v2l-2,1v1h-2l-1,2h-3v2h-2v4l3,1V56h1a11.876,11.876,0,0,0,1,5h1V60h1V57h1v2h2V58h1V55h1v3h2V53h1a9.749,9.749,0,0,0,1,4h1V56h1V52h1v3h2V48h1c-0.058,3.579.228,6.3,2,8V47c-3.541-.38-3.036-1.241-6-2v2h-1V46a7.744,7.744,0,0,1-2-3l3,1V41a3.983,3.983,0,0,1-2-2h2V37c1.139,1.139.4,0,1,2h1v1h-1v4h3V43h1V42h-1V41h1l1-3h4l-1-3h4c-0.463-2.391-1.158-3.145-2-5h2v1c2.532,1.536,5.167-1.236,7-1a2.83,2.83,0,0,0,3,1V30l4,1V30c1.139-1.139.4,0,1-2a12.752,12.752,0,0,1-5-4h2v1l6,2v2h1v1c-2.613.624-2.846,1.06-4,3-2.01-.574-0.865.12-2-1h-2a7.537,7.537,0,0,0,2,4h1c1.166,1.73-.043,2.3,2,4-0.574,2.01.12,0.865-1,2a8.281,8.281,0,0,1-5,3v3c-3.428.871-2.575,2.068-6,3q0.5-3,1-6l2,1V43c-1.654-1.4-2.476-3.457-3-6h1v1c2.126,1.881,2.4,4.439,5,6q-1-3.5-2-7h1a9.879,9.879,0,0,0,4,4V38c-1.139-1.139-.4,0-1-2-3.983-2.191-3.306-2.969-10-3v3h-1c-1.139,1.139,0,.4-2,1v3l-3,1V40h-1v2h-1c-0.931,1.317-.759,1.777-1,4,1.709,1.5,2.1,3.785,3,6a10.6,10.6,0,0,1,4-1V44h1v1h1q0.5,3,1,6c-2.465,1.439-2.788,3.138-6,4v2h4l1,3c3.715-.594,2.289-0.58,6,0V54l5-1a2.74,2.74,0,0,0,3,1c0.795-.267.018-2.445,3-2v1l7,1c-0.574-2.444-1.047-2.206-2-4h3v1h5l-1-3h3v1h5V47c3.006,1.044,3.935,1.3,7,0v1h1v4l3,1,4,5h-2c-1.97-3.02-.9-0.441-3-2l-1-2c-1.542-1.455-3.653-2.357-5-4h-2l-2,3a1.493,1.493,0,0,1-2-1c-3.973-.575-5.069,1.821-10,0v1h1v3c-3.807.679-3.2,0.662-7,0v1h1a8.281,8.281,0,0,0,5,3V58a19.617,19.617,0,0,1,7,3l1,2,4-1v1h2c0.376,0.222.944,1.424,2,2-0.945-1.8-1.385-1.575-2-4l4,1v1c2.31,0.746,2.422-.63,3-1h1v1h6V60h1c1.354,1.587,2.169,1.737,5,2-0.463-2.391-1.158-3.145-2-5h2v1c1.587,1.354,1.737,2.169,2,5a10.6,10.6,0,0,1-4,1c-1.139-1.139,0-.4-2-1v2c3.033,1.95.673,1.4,2,3l5,3V70h-1l1-2,8,4V69h1a25.574,25.574,0,0,0,8,6c-1.584-2.749-2.47-1.8-3-6h1a9.11,9.11,0,0,0,6,5V73c-1.975-1.129-2.338-1.417-3-4h1v1c2.787,1.53,6.119,4.548,7,8l3,1V77l-4-3V72l-2-1-2-3h-2l-6-7h-2l-1-2-3-2V56h-2l-4-5h-2l-4-5h-2l-3-4h-2l-2-3h-2l-2-3h-2l-2-3h-2l-1-2-3-1V29h-2l-1-2h-2l-1-2h-2l-1-2h-2l-1-2h-2l-1-2h-2l-1-2h-2V16l-4-1V14h-3V13h-3V12h-3V11h-4V10h-6V9H175v1l-5,1c-1.212,2.128-2.252,2.177-3,5h-1q0.5,4.5,1,9h1v3h1v3h1c1.544,5.226-2.572,7.457-4,10,2.01,0.574.865-.12,2,1,2.01-.574.865,0.12,2-1,2.51-1.417,2.866-2.05,3-6-3.86-3.723-3.156-13.123-2-19,2.749-1.584,1.8-2.47,6-3v1h-2a13.294,13.294,0,0,1-3,4c0.574,2.01-.12.865,1,2v1h3Zm-75-7V12c-1.135.844-.145-0.127-1,1-0.416.579-1.633,0.146-1,2h1v1h3c1.139-1.139,0-.4,2-1V14h-4Zm115,5v3l3,1v1h2v1c1.481,1.35,1.373.49,2,3h1v1h-1c-0.579.416-.147,1.634-2,1V29c-1.361-1.166-1.528-1.825-2-4-4.044-1.04-5.435-3.584-8-6l-1-2h-3V16h-1v1h-2v1c-2.73.877-5.731-.847-7-1l-1,2h-1V18h-3V17l-3,2V18c-2.393-.607-1.858-0.317-3-2h3V14l6,1V14h1v1l6,1-1-3h2v1l6,1C211.429,16.079,212.841,18.194,216,19ZM93,20l1-3h2l-1,2h1v1H93Zm113,0V17h1v1h1l1,2h-3Zm-96,0v2h2v1h-3V21h-5V20h1V19Zm83,1v2h-4V22h3V20c2.612-.1,3.426-0.252,5-1v1c1.139,1.139.4,0,1,2h-1V21h-4Zm10,0V19a6.148,6.148,0,0,1,3,3h-1c-0.579.416-.147,1.634-2,1V22h-2C199.22,20.947,203,21,203,21Zm-90,0h2v1C112.99,21.426,114.135,22.12,113,21Zm59,4h2V24h-1V22h-1v3Zm33-2h2v1h-2V23Zm-10,7-8-1v3h-4V31h3c-0.574-2.444-1.047-2.206-2-4h1V26l3,1V25c4.574,2.089,2.865,2.085,7,0v5Zm-61,1,4,1,1,2h3c2.824,0.556,3.8,1.915,5,4h1q0.5,3.5,1,7h6c0.844-1.135-.127-0.145,1-1l-4-8-3-1V34h-1V28h-1c-0.8-1-.443-1.685-2-2-1.053.664,0.362,1.382-1,1,0,0-.337-1.426-3-1v1h-1V26h-4C134.906,28.078,134.389,27.771,134,31Zm38-1h2q-0.5-2-1-4h-1v4Zm-34-3v3l-3-1V28h1C137.139,26.861,136,27.6,138,27ZM90,30c7.532,0.258,10.9,1.692,17-1v2c-1.909,1.256-1.659,1.014-2,4h3v3a9.746,9.746,0,0,0,4-1v3h2l-1,3h1c1.139,1.139,0,.4,2,1v2l-3,1V46c-1.169-.825-1.427-0.517-2-2,0.548-.729,1.5.322,1-1-0.058-.151-1.385-0.291-2-3h-4V37l-3-1V33H99c-1.384-.29.41-0.888-1-1v1H95v1H94V32H89l-1-3c1.135-.844.145,0.127,1-1C90.139,29.139,89.4,28,90,30Zm37-1v2l5-1V29h-1V28Zm46,3,1,3h1C174.393,32.607,174.682,33.142,173,32Zm-48,9h2c0.866-3.508,2.5-3.744,3-8h-2C126.292,35.937,125.109,35.863,125,41Zm15-3V36c-3.508-.866-3.744-2.5-8-3v1h1v1C135.551,36.39,136.1,37.581,140,38ZM67,37l6-1v1H72v1c-1.489.57-2.017,0.389-4,1v1l-6-1v1l-4,1V40h1c1.771-3.149,4.928-5.171,9-6v1C66.861,36.139,67.6,35,67,37Zm28,8-3-1V43H90c-1.087-.939-0.79-2.046-1-4,1.614-1.328,2.069-2.849,4-4V34h1v2c-2.041,1.34-1.878,1.637-2,5h1V40c1.614-1.328,2.069-2.849,4-4v2H96l-1,6h1V43c1.4-1.2,2.207-3.241,3-5h1v2c-1.759,1.5-1.9,2.7-2,6h1c0.574-2.01-.12-0.865,1-2v7H99C97.561,48.535,95.862,48.212,95,45Zm28-11v3h1V34h-1Zm120,7h-2l-1-2a2.558,2.558,0,0,0-3,1l-6-1,1,3h-1v1h-3c-1.139-1.139,0-.4-2-1v2c-3.276.285-13.1,1.522-8-1V41l5,1V40l6,1V39h1l-2-3h2c0.565,0.664,2.341,2.694,4,2V37h1V36h-1c-0.4-1.958.341-1.271,1-2C237.986,37.265,241.566,35.655,243,41ZM118,44h-2q0.5-2,1-4a1.574,1.574,0,0,1-1-2h1l1-3h1v2h-1q0.5,2,1,4h-1v3Zm24-7c1.139,1.139,0,.4,2,1C142.861,36.861,144,37.6,142,37ZM76,44V42l-5,1-1-3h1V39l2,1v1l5-1v1h1v1c1.859,0.454,1.506-.82,2-1l3-1a9.746,9.746,0,0,0,1,4H80V43C79.4,42.979,78.15,43.888,76,44Zm54-5q0.5,5,1,10h1C132.174,44.588,132.573,40.777,130,39Zm3,0c0.695,3.621,2.6,6,4,9h1V44C136.064,42.4,135.319,40.356,133,39Zm6,2a11.575,11.575,0,0,0,5,6c0.844,1.135-.127.145,1,1V46c-3.02-1.95-.7-1.456-2-3Zm61,0c1.139,1.139.4,0,1,2h-1V41ZM100,42c1.139,1.139.4,0,1,2h-1V42Zm96,0c1.139,1.139.4,0,1,2h-1V42Zm633,0q0.5,7,1,14c-1.135.844-.145-0.127-1,1-12.592-.137-24.779,2.953-29,11-2.219,4.231-2,13.445-2,20v37H781V44h16V57h1V56l8-9h2C813.684,43.773,819.973,42.052,829,42ZM127,43c-1.41,3.155-2.028,5.75-2,11h1V52c0.677-.608,3.432-6.7,2-9h-1Zm74,0c1.139,1.139.4,0,1,2h-1V43Zm288,0c12.929-.212,24.373-0.05,32,5l2,3h2l3,4h1v2l3,2q0.5,2,1,4h1v2h1c1.631,3.748,4.912,21.53,3,28h-1q-0.5,4-1,8h-1v3l-9,13h-2l-2,3h-2q-0.5,1-1,2h-2v1h-3v1h-2v1c-2.941,1.136-18.767,2.289-23,1v-1h-4v-1h-3v-1l-4-1v-1h-2c-10.485-6.659-21.862-26.633-16-46V70h1V67h1V65h1V62l2-1V59l2-1V56l2-1,4-5h2l1-2h2V47l4-1V45l7-1V43ZM763,89H705c-0.167,16.459,14.92,28.687,33,23h5v-1h3v-1l6-2q0.5-1,1-2h2q0.5-1,1-2h1v1c2.451,2.258,2.466,6.81,5,9-0.574,2.01.12,0.865-1,2-4.568,7.208-31.5,13.821-45,9v-1l-6-1c-4.935-2.193-8.443-6.371-12-10l-3-2q-0.5-2-1-4l-2-1v-3h-1v-3h-1V97h-1V92h-1V78h1V72h1V69h1V66h1q1-3,2-6l2-1V57l5-4,2-3h2l1-2,4-1V46h2V45l6-1c2.516-.886,15.077-2.266,19-1v1h3v1h3v1h2v1h2l1,2C760.691,57.574,763.311,67.685,763,89Zm151,36H897V68c-0.715-2.22-2.39-4.21-3-7-1.857-1.032-4.12-3.256-6-4h-4V56l-11,1v1h-2v1l-4,1-1,2-3,2q-1,3-2,6h-1v4c-1.2,3.783-1,8.787-1,14v37H842V44h16v1h1c-0.114,3.268-.569,8.3,1,10,4.733-8.336,19.806-15.61,34-11h4v1l4,1,1,2h2v1l3,2C917.2,63.907,914.253,102.412,914,125Zm48-82c12.929-.212,24.373-0.05,32,5l2,3h2l3,4h1v2l3,2c0.33,1.333.67,2.667,1,4h1v2h1c1.63,3.748,4.91,21.53,3,28h-1c-0.33,2.666-.67,5.334-1,8h-1v3h-1v2l-9,12h-2q-0.5,1-1,2h-2q-0.5,1-1,2h-2v1h-3v1h-2v1c-2.942,1.136-18.767,2.289-23,1v-1h-4v-1h-3v-1l-4-1v-1h-2c-10.485-6.659-21.862-26.633-16-46V70h1V67h1V65h1V62l2-1V59l2-1V56l2-1,4-5h2l1-2h2V47l4-1V45l7-1V43Zm219,46c0.17,6.354,2.83,9.912,4,15,1.67,1.333,3.33,2.667,5,4v1l6,2v1h4c9.26,2.944,21.73-.538,28-4v-1h2v-1a8.387,8.387,0,0,1,4-2q1.995,6,4,12l-3,2v1h-2v1l-6,2v1l-6,1v1h-5v1c-4.36,1.248-16.08-.117-19-1h-5v-1h-3v-1h-2v-1h-3c-13.07-7.065-24.53-27.837-18-48,0.33-2.333.67-4.667,1-7h1V65h1c0.67-2,1.33-4,2-6,0.67-.333,1.33-0.667,2-1V56c1.33-1,2.67-2,4-3,0.33-.667.67-1.333,1-2h2c0.67-1,1.33-2,2-3l6-2V45l7-1V43h18v1h4v1l6,2v1h2l3,4c1.67,1.333,3.33,2.667,5,4,4.66,6.946,7.13,20.253,7,32-4.83,1.77-13.55,1-20,1h-39ZM249,47V45c5.182,2.342,19.754,15.206,21,21h-2l-2-3-10-9-2-3h-2V50h-6V49l-4-3V44h1v1h2v1C246.317,46.931,246.777,46.759,249,47Zm404-3h17v81H653V44ZM140,47v3l4,3V49C142.2,48.056,142.426,47.615,140,47ZM23,72v3h1c1.574-2.911,3.846-5.536,8-6-0.463,2.391-1.158,3.145-2,5h1c1.714-2.035,2.245-.832,4-2V71a7.938,7.938,0,0,1,4-2c1.127,1.719.633,1.355,3,2,0.723-2.762.279-2.237,3-3v2h2l3-4c-1.719-1.127-1.355-.632-2-3l-5,1V63l-2-1a10.6,10.6,0,0,0,1-4H40a20.169,20.169,0,0,1-8,8V63c3-2.006.4-.807,2-3,0.479-.658,6.939-4.138,3-6h5V50H40c-3.579,6.09-10.315,9.917-16,14l-3,4H19a25.381,25.381,0,0,0-9,11h1C12.718,76.917,19.845,72.691,23,72ZM49,50v1h4V50H49Zm80,2c-0.014,5.253,1.424,7.587,3,11h1V57h-1V55A5.988,5.988,0,0,0,129,52Zm18,2q0.5,2.5,1,5l5,3V60C150.474,58.349,149.717,55.6,147,54Zm90,0c3.625,0.731,4.405,2.486,7,4v2h-1C241.122,57.735,238.569,56.7,237,54Zm-24,1v1h4V55h-4ZM705,78h44a24.681,24.681,0,0,0-3-12V64l-2-1V61h-1l-2-3h-2V57c-2.043-1.159-2.225-.022-4-2H721C712.708,57.737,705.086,67,705,78Zm476,0h44c0.2-8.971-4.27-19.337-11-21-1.56-1.607-11.83-3.384-16-2v1h-3v1h-2v1h-2c-0.33.667-.67,1.333-1,2-1.67,1.333-3.33,2.667-5,4v2h-1v2C1182.55,70.968,1181.12,73.465,1181,78ZM83,94c8.65,0.049,17.014-2.943,24-5,5.214-1.535,15.972,1.528,18,0h1q1-4,2-8h-1V79h-1q0.5-4,1-8h-1v1c-1.8.334-2.615-2.479-3-4a7.8,7.8,0,0,1-4-2V65h-3l-1-3-2-1V59l-6,1a1.486,1.486,0,0,0-2-1l-2,3h-2v1c-1.413-.069.4-0.777-1-1H94l-3-6-3,1v1H86v1l-6,1-1,2H77v1l-4-1v1H71l-1,2H68v1l-5-1-1,2H60v1l-3,1v1h1c4.283,3.558,11.665-2.335,18,0v1c4.071,1.845,6.751,2.29,8,7C88.714,82.465,84.083,89.514,83,94ZM188,59c-0.871,3.428-2.068,2.575-3,6h-4v1l-4,2c-0.443-.21-0.4-1.666-2-2v1c-2.043,1.154-1.8,1.579-5,2-0.1-.223-1.439-3.626-2-3v1c-0.827.805-3.833,7.643-4,9l2,1v2h1V90h4V89h1c0.205,0.038.94,2.762,2,2l1-3c3.327-1.1,2.144,2.085,3,3h1V90c2.52-2.048.412-2.413,5-3v3c14.208-.19,24.9,2.744,37,4V93c-3.213-2.012-3.151-5.623-3-11h1V79l2-1c1.882-2.8,1.189-4,5-5,6.706-7.275,17.5,4.99,23-4-5.2,1.864-5.278-.1-9-2h-2V66l-9-2-1-2a2.582,2.582,0,0,0-3,1l-6-2-1-2h-3V58h-3V57l-4-1v1c-3.3,3.73,1.152,4.934-7,5v1c-2.064.667-3.844-2.239-5-3V59c-1.709-.781-3,1-3,1h-1V59h-4Zm42-3,3,1v1c2.567,1.781,1.912-1.082,3,3C232.531,60.383,230.832,59.352,230,56Zm263,0v1l-5,1v1h-2l-1,2-5,4q-0.5,2-1,4h-1q-0.5,3.5-1,7c-5.434,17.452,3.966,33.2,16,37,7.247,2.286,13.511-1.97,18-3l4-5h1v-2h1q0.5-2,1-4h1V96h1c4.358-13.029-1.688-34.578-11-37C506.058,55.588,499.474,55.881,493,56Zm87,5a8.621,8.621,0,0,1-2,4h-1q-1,3-2,6h-1v5h-1q0.5,11,1,22h1q0.5,2,1,4h1v2l2,1v2l3,1q0.5,1,1,2h2v1h2v1c4.014,1.724,14.392,1.619,17-1,12.071-2.859,16.41-23.6,12-37V70h-1V68l-6-8h-2V59c-1.229-.952-1.93-0.75-3-2l-14-1C586.533,57.131,583.657,60.025,580,61Zm386-5v1l-5,1v1h-2l-1,2-5,4q-0.5,2-1,4h-1q-0.5,3.5-1,7c-5.434,17.452,3.966,33.2,16,37,7.247,2.286,13.511-1.97,18-3l4-5h1v-2h1q0.5-2,1-4h1V96h1c4.336-12.96-1.689-34.576-11-37C979.058,55.588,972.474,55.881,966,56Zm136,0v1l-5,1v1h-2c-0.33.667-.67,1.333-1,2h-2c-1.72,1.361-6.2,11.275-7,14-1.25,4.224-.17,20.123,1,23h1c0.33,1.333.67,2.667,1,4h1v2c0.67,0.333,1.33.667,2,1,0.33,1,.67,2,1,3h2c0.33,0.667.67,1.333,1,2l4,1v1c4.01,1.718,14.4,1.625,17-1,12.07-2.859,16.41-23.6,12-37V70h-1V68l-6-8h-2V59c-1.23-.952-1.93-0.75-3-2ZM127,57c-1.484,3.325-2.038,6.471-2,12h1V68c0.778-.705,3.638-8.382,2-11h-1Zm56,2v1h-1c-1.889.859,2,1,2,1,0.844-1.135-.127-0.145,1-1C183.861,58.861,185,59.6,183,59Zm-12,7c2.927-.684,3.274-1.113,4-4h3v2h2a9.749,9.749,0,0,1,1-4h-4v1h-4v1l-3,1Zm-24-5c0.021,2.884.613,6.593,2,8,1.139,1.139,0,.4,2,1q-1-4.5-2-9h-2ZM55,63c-2.055,3.037-1.85.427-4,2v1c2.078,1.094,1.771,1.611,5,2,1.139-1.139,0-.4,2-1V66C56.483,65.046,56.306,64.046,55,63Zm76,1c0.029,5.654,1.939,6.987,3,11h1V70h-1V67h-1C132.075,65.714,132.269,65.053,131,64Zm117,1c1.342,2.085,3.677,2.963,6,4V67h-1V66Zm-5,1c1.139,1.139,0,.4,2,1C243.861,65.861,245,66.6,243,66ZM129,70q-0.5,4.5-1,9h1V78C131.531,76.01,131.778,71.874,129,70Zm32,0c0.493,0.427,1.251,1.853,3,1V70h-3Zm-9,1v8h1V78h1q-0.5-3.5-1-7h-1Zm101,0v3h8V73C257.771,72.211,257.551,71.144,253,71Zm-2,5V72l-3,1v1h-2v1c-3.13,1.115-7.342-1.522-9-2l-10,1v1h-2v1c-1.51,1.347-1.333.511-2,3h-1v1h3c4.282-3.516,16.8,5.948,25,3V82l4-1V80l4-3V76h-7ZM135,86l3,1V84c-1.89-1.665-1.7-3.5-4-5V78h-1v4C134.361,83.166,134.528,83.825,135,86Zm20-7c-0.058,3.579.228,6.3,2,8C157.145,82.927,157.352,80.617,155,79Zm-12,3V80h-1v2h1v1h3v1h1C145.744,82.091,145.986,82.341,143,82Zm19-2v2h1C162.426,79.99,163.12,81.135,162,80Zm61,2c-1.27,2.73-2.532,3.292-3,7,2.932,2.5,2.9,5.374,8,6V94h3l3-4h-1C232.04,85.919,227.788,82.408,223,82ZM39,96V90c-5.031-2.145-10.1-4.781-16-6v1c2.438,1.567.61,1.131,2,3l3,2,5,7Zm93-12c-0.029,5.055,1.184,6.393,2,10h1V88C133.565,86.757,133.444,85.229,132,84Zm132,5q-0.5,3.5-1,7h8c1.043-4.066,3.173-3.471,5-6V88h1l3-4h-3C275.193,85.8,267.2,88.375,264,89ZM163,89v3l2,1v1h1V92h-1C164.393,89.607,164.682,90.142,163,89Zm-22,3c-2.444-.574-2.206-1.047-4-2v1c2.126,1.881,2.4,4.439,5,6v1h1V95C141.281,93.873,141.645,94.368,141,92Zm-5,5h-2c-0.723-2.762-.279-2.237-3-3-2.118-1.974-16.435-4.618-22-3v1h-5v1H99v1H95v1H90c-1.971.6-8.829,2.908-12,2l-8-3v5h1l1,5c2.572,1.417,5.114,4.061,8,5,5.081,1.653,11.191-1.06,14-2h4v-1h4v-1h4v-1h6v-1c8.176-2.331,20.72,2.685,28,3v-1C137.541,103.426,136.614,100.352,136,97Zm21,9c8.389,1.5,11.929-.832,19-3h9l2-1v1h10v1l11,2c3.375,1.311,10.772,5.214,17,3v-1l4-1c2.016-4.46,3.852-7.077,5-13h-1c-3.55,5-11.832,2.511-17,1h-6c-12.266-3.552-34.1-4.248-44,2l-1,2h-2l-2,3C158.6,104.174,158.207,101.941,157,106ZM147,93c-1.139,1.139,0,.4-2,1v1c1-.269,3.764-0.455,3-2h-1Zm17,4-1-3a9.746,9.746,0,0,1-4-1v3h1v3h1C162.127,97.281,161.633,97.645,164,97Zm-54,2h-4c0.054,1.413.758-.393,1,1,1.889,0.86-2,1-2,1a14.808,14.808,0,0,0-1-6l5-1c0.692,1.358,1.492,1.277,2,2v1h-1c0.33,1.487.818,1.666,1,4h-1V99Zm5-4v6h-1V99h-1V95c-2.01-.574-0.865.12-2-1h6v1h-2Zm6-1c0.317,3.543,1.314,3.949,2,7h-1c-3.063-4.238-3.439.71-5-3h1V95h1C120.139,93.861,119,94.6,121,94Zm3,0h4c1.382,2.612,1.769,1.693,2,6a15.682,15.682,0,0,1-6,1V94Zm60,2v4h3V99h1V96h1v4a15.682,15.682,0,0,1-6,1q-0.5-2.5-1-5a7.482,7.482,0,0,0,3-2l3,1v1h-4Zm6-2,6,1q-0.5,3-1,6h-1c-0.723-2.762-.279-2.237-3-3v3h-1V94ZM41,122l3,1v1h2v1h2l1,2h2l1,2h2l1,2,4,1,1,2,4,1v-1c-1.99-2.236-.031-6.477-1-10H62V109L42,95v4H41v23ZM98,96l5-1v1h-1v1H99v1h5v1a9.746,9.746,0,0,0-4,1v1h4v1a11.878,11.878,0,0,0-5,1V99H98V96Zm27-1v5h3V98h1V97h-1C126.873,95.281,127.367,95.645,125,95Zm53,0h1c0.339,0.845-2.483,6.526-3,7-0.452-4.181-1.432-3.289-3-6h2a3.981,3.981,0,0,0,2,2Zm19,0h4l1,3h2V96h3v1h-2v2h3v1h-4v1h1v1h3v1h-4v-1h-1V99h-1v2h-2c0.308-.871,1.912-2.213,1-4h-1c-1.139-1.139,0-.4-2-1,0.157,4.291.636,3.427,2,6h-3q-0.5-1.5-1-3h1V95Zm-91,1v2l3-1V96h-3Zm13,0v2h1C119.426,95.99,120.12,97.135,119,96Zm19,0v5h1c0.624,2.613,1.06,2.846,3,4C141.029,102.348,139.961,97.688,138,96Zm19,0h-2l2,4h1V98C156.861,96.861,157.6,98,157,96Zm34,0c0.493,0.427,1.251,1.853,3,1V96h-3Zm71,26q-0.5-13-1-26h-1l-19,12q-1,14-2,28h1c1.908-2.866,5.1-3.088,8-5q0.5-1,1-2l4-1q0.5-1,1-2h2l1-2h2v-1ZM97,97l1,6H96l1-2H94v2h2v1H93c-0.673-3.411-3.154-5.1,0-6v2l3-1V98H93V97h4Zm110,0h2v1C206.99,97.426,208.135,98.12,207,97Zm3,0c1.909,1.256,1.659,1.014,2,4h-1v-1c-2.24,1.6.11,1.669-1,3h-1V99C210.139,97.861,209.4,99,210,97ZM89,98c1.9,1.593,2.7,3.738,3,7H91v-2C89.413,101.646,89.263,100.831,89,98Zm125,1h1v3h-1V99ZM84,100c1.587,1.354,1.737,2.169,2,5H85v-2H84v-3Zm68,9h2v-9h-1v2h-1v7Zm62-4h-2v-4h1v1h1v3Zm-69-2c0.237,3.391.835,4.614,3,6v1h1v-2C147.11,106.335,147.3,104.5,145,103Zm-55,3H87v1c-0.9,1.87-1-2-1-2h3v-1C89.9,102.13,90,106,90,106Zm26-1v1h-9v1l-6,1c1.139,1.139,0,.4,2,1,2.893,3.318,9.839,4.04,16,4v-1h-1q0.5-3,1-6Zm65,0q-0.5,1.5-1,3h-2q-0.5-1-1-2l-12,2v1h1v1l6,1c2.838,1.018,11.287,3.4,16,2v-1h5c3.115-1.066,6.4-3.175,10-4v-1a41.534,41.534,0,0,1-8-2H181ZM32,121a34.228,34.228,0,0,0-1-8l-18-6v1l4,3v2l5,4v2l2,1v1h8Zm239,0h7l5-6h1v-2l6-5v-1h-3c-2.525,2.336-13.719,3.886-15,6v2h-1v6ZM155,108q-0.5,2.5-1,5h-2v-2a1.757,1.757,0,0,0-1,2c-1.355.726-4.6-4.428-7-4v1l-4,1v1h-3v1h-3v1h-4v1h-8v1h-4v-1h-7v-1l-7-1v-1h-2v-1H99v-1H97v-1c-1.388-.268.368,0.643-1,1l-10,1-1,33h1v14c8.141,2.97,26.615,1,37,1h82c1.819,1.682,7.561,1.1,11,1V150h1v-9q-0.5-15-1-30c-3.6-.341-7.129-3.153-11-2v1h-3v1h-2v1c-3.5,1.5-18.072,4.724-24,3Zm-55,5,5,1c2.055,4.437,2.038,5.63,1,11h3v1c1.139,1.139.4,0,1,2h2c1.4,0.914.034,2.553,1,4l2,1v1h8v-1h7c1.943,3.037,1.116.537,3,2q0.5,1,1,2h1q1,4.5,2,9l3,2v3h1a8.651,8.651,0,0,1,2,4h-1v1h-3v1l-3-1v1c-2.186.631-11.261,0.988-14,0v-1h-2v-1h-6v-1c-3.62-1.786-4.738-3.967-9-5q-0.5-2-1-4h-1v-4l-2-1V130c-5.081-.343-8.379-2.307-12-4l1-3,6-5v-1c1.972-1.46.8,0.826,3-2h1v-2Zm44,5h3v1l2-1,10,1c-0.574,2.01.12,0.865-1,2q0.5,1.5,1,3h1v2h1q-0.5,4.5-1,9h3v1h-1q-0.5,2.5-1,5h-1v2c-0.325.516-1.372,0.839-2,2h-2v-1c2.634-1.547,3.729-4.145,5-7h-3c-1.5,2.63-3.189,3.378-4,7h-2v-3h-1c-0.844-1.135.127-.145-1-1,0.333,0.81,2.154,4.056,1,6h-1a14.425,14.425,0,0,0-7-6v2h1c1.077,4.213,4.331,4.562,8,6-0.06,1.5.8,5.12-1,5v1h2v-9h3v1l-2,1q0.5,3,1,6h-1v3h-3v-1h-1v-7l-5-1c-1.978-3.443-4.438-4.805-5-10,4.257,0.826,5.933,3.205,9,5v-2l-3-1v-1h-2v-1l-3-2v-2h-1c-0.011-5.746.582-8.008,3-11l2-1Q144.5,119.5,144,118Zm-65,1c-0.195,10.727-.02,21.346,3,29h1V121ZM96,254v-2l-9-8v-2l-3-2v-2l-2-1-1-4-2-1v-2H78v-2H77v-2H76v-2H75v-2H74v-2H73l-2-6H70v-3H69v-2H68l-1-6H66v-2H65v-4H64v-3H63v-3H62v-4c-1.5-4.541-2.642-11.271-4-16l-1-37c-8.289-3.693-14.677-10.14-23-14v9c-2.421,2.686.13,8.843-1,13H32c-1.266,4.6.076,21.746,1,25v13h1l2,19c8.77,27.206,11.622,48.655,40,57C83.28,258.141,89.973,254.392,96,254Zm50-134c-0.743,2.718-1.653,3.045-3,5h-1v8c1.747,1.4.109,0.985,1,2l4,2v-2c-1.194-1.117-3.29-7.695-2-11h1v-2c0.258-.421,1.4-0.941,2-2h-2Zm10,1-3-1v2c5.592,3.379,1.942,10.954,0,15h2c1.72-2.135,2.033-.566,3-4h1v-8h-1A10.187,10.187,0,0,1,156,121Zm63,26h2a256.48,256.48,0,0,0,3-27c-1.261.257-4.6,1.282-5,2v25Zm48-27c-2.718,3.972-7.932,5.306-12,8q-0.5,1-1,2h-2v1h-2q-0.5,1-1,2l-3,1v13c-2.775,3.35.407,11.1-1,16q-3,15.5-6,31h-1v3h-1v3h-1v4h-1v2h-1q-0.5,3-1,6h-1v2h-1v3h-1q-0.5,2-1,4h-1v3h-1v2h-1v2l-2,1q-0.5,2-1,4l-2,1q-0.5,2-1,4l-3,2v2l-3,2v2l-2,1-5,7c6.144,0.587,11,2.736,17,1h6c27.626-9.143,37.365-49.911,39-86,0.235-5.2,2.744-18.79,1-25h-1v-8C268.99,130.754,269.4,122.677,267,120Zm-66,21h-2a29.413,29.413,0,0,1-1,7c-2.612,1.382-1.693,1.769-6,2-0.607,2.393-.318,1.858-2,3-2.884,2.846-5.234.408-9,2q-0.5,1-1,2l-19,1q-0.5-1.5-1-3h-1q-0.5-3-1-6h1v-2c3.493-.643,2.756-1.116,6,0-0.072-9.863,3.819-9.047,8-14l13,1c1.212-2.128,2.252-2.177,3-5l4-1v-2l6-1c1.756,3.316,2.058,4.368,2,10h1Q201.5,138,201,141Zm-82-6c-6.238.178-4.858,1.427-8,4v-3c1.719-1.127,1.355-.633,2-3-4.55.184-4.3,1.432-7,3v-2c2.078-1.094,1.771-1.611,5-2q-0.5-1.5-1-3h-4v-1c2.01-.574.865,0.12,2-1h-1v-1h-2c-1.339,2.523-1.99,3.5-2,8h-1c-1.074,1.919.547,5.234,1,6h1q0.5,3,1,6h1l2,3h2l3,4h5v-1c-1.314-1.249-3.176-7.509-2-11h1v-3h1Q118.5,136.5,119,135Zm76-8v2c2.739,0.644,2.276,1.309,5,2v-3h-1v-1h-4Zm-13,26a34.218,34.218,0,0,0,8-1c1.291-4.488.656-1.4,4-3v-1l3-1v-6h1c1.624-2.483,1.675-1.883,2-6-3.565-3.061-1.849-4.9-9-5-0.844,1.135.127,0.145-1,1,0.844,1.135-.127.145,1,1v1c2.169,1.575,1.946-1.048,4,2,1.135,0.844.145-.127,1,1h-2c-1.419-2.162-2.366-2.01-6-2v1c2.39,1.361,3.35,2.852,4,6h-1v-1c-3.306-2.814-1.317-3.912-8-4v1c1.909,1.256,1.659,1.014,2,4h-1v-2c-3.515-2.237-4.3-5.721-9-4h-3v1c5.281-.107,7.973.825,9,5C184.5,143.962,182.538,148.606,182,153Zm-47,3v-2l6,1v-2h-2q-0.5-2.5-1-5c-4.045-.877-4.092-2.654-9-3v2c-2.012.175-2.992-.048-4,1v2l-3-1v1c1.909,1.256,1.659,1.014,2,4h-1v-1c-3.949-3.234-3.079-8.693-2-14,1.749-.737,3.837-1.622,5-3,3.96,0.7,5.27,2.415,8,4q-0.5-1.5-1-3c-3.508-.866-3.744-2.5-8-3v1h-3v1l-3,2c-3.3,5.068-1.588,15.475,4,17C124.934,156.783,131.393,156.1,135,156Zm-14-9,6-1q-0.5-2.5-1-5l-3-1v1C121.241,142.5,121.1,143.7,121,147Zm48,9,10-2q0.5-1.5,1-3h1q0.5-2.5,1-5h-1c-0.36-4.325-1.423-4.914-6-5-1.643,3.1-1.9,1.8-2,7,2.512,1.365,3.6,2.333,4,6h-1v-1c-3.265-2.672-.388-2.914-7-3-0.844,1.135.127,0.145-1,1A12.71,12.71,0,0,1,169,156Zm58-10-8,4a109.293,109.293,0,0,1-4,26q-1,6-2,12h-1q-0.5,3.5-1,7h-1v2h-1q-0.5,3-1,6h-1v3h-1q-1,3-2,6h-1v2h-1q-0.5,2-1,4h-1v2l-2,1v2l-2,1v2l-2,1v2l-2,1v1l-2,1v2h-1c-1.4,1.778-1.54,2-2,5,2.465,1.439,2.788,3.138,6,4v-1c1.314-1.11,1.841-2.743,3-4l2-1v-2l3-2v-2l2-1v-2l2-1q0.5-2,1-4l2-1q0.5-2,1-4h1v-2h1q1-3,2-6h1v-3h1q0.5-2,1-4h1q0.5-3,1-6C224.52,181.977,226.73,167.707,227,146ZM76,147c-0.949,32.842,8.247,56.884,20,77v2l2,1v2l3,2v2l4,3v2c0.51,0.7,5.794,5.392,7,5v-1a6.749,6.749,0,0,0,4-5h-1q-0.5-1.5-1-3l-4-3v-2l-3-2v-2l-2-1v-2l-2-1q-1-3-2-6l-2-1v-2H98l-1-4H96l-9-29v-5H86v-6H85v-7H84c-1.009-3.515,1-7.754-1-10A16.66,16.66,0,0,0,76,147Zm88,3v-2a9.749,9.749,0,0,0-4,1v2h1v-1h3Zm-3,6,5,1c0.945-1.8,1.385-1.574,2-4-2.078-1.094-1.771-1.611-5-2a3.982,3.982,0,0,1-2,2v3Zm967,31h-35V158c7.44-2.744,24.41-1.05,34-1C1129.69,164.283,1128.05,177.878,1128,187Zm-740,9c-0.737,2.589-1.559,3.239-3,5h-1v2l-2,1q-2.5,7-5,14v6h-1c-1.369,4.863.014,18.566,1,22v7h1v4h1v3c6.049,13.819,15.893,23.984,36,24h12v-1l8-1v-1h2v-1h3v-1l4-1v-1h2l1-2,4-1v-1a8.316,8.316,0,0,1,4-2v1c2.675,2.364,9.493,18.141,10,23l-4,2-1,2h-2l-1,2-6,2v1h-3v1h-2v1l-6,1v1h-4v1h-5v1h-8v1c-7.262,2.031-23.4-1.489-28-3l-7-1v-1h-3v-1l-4-1v-1l-6-2-1-2h-2l-1-2h-2l-4-5c-9.808-7.324-15.574-19.388-20-32v-4h-1v-5h-1V241h-1q0.5-10.5,1-21,3-10.5,6-21h1l1-4h1v-2l2-1v-2l2-1v-2l3-2v-2l6-5,1-2h2l2-3h2l1-2h2l1-2h2v-1l4-1v-1l9-2v-1h3v-1h5v-1h7v-1c5.146-1.434,15.384-.042,19,1h7v1l8,1v1l9,2v1l4,1v1h2v1h2l1,2h2l1,2h2l1,2h1v3l-10,21-3-1-1-2h-2l-1-2-4-1v-1c-7.528-4.024-15.488-6-27-6H406v1h-4v1h-3v1l-4,1v1h-2v1C391.214,194.424,390.614,195.284,388,196ZM87,161c0.008,8.527,2.72,18.314,5,25l2,10c1.272,3.17,3.147,6.054,4,10h50v-1c-2.467-1.558-.626-0.932-2-3l-2-1v-6l-6-2c-1.515-1.252-1.019-5.272-1-8h1v-4h-2v-7c4.15-2.509,17.24-12.764,23-4,3.228,3.257,3.056,11.96,4,18h1v1h-1v5c2.128,1.212,2.177,2.252,5,3-1.125,4.219-3.988,3.24-9,3q-1-2-2-4l-4,1q0.5,1.5,1,3h-1v2h-1a8.739,8.739,0,0,0-2,4h54c0.708-3.562,2.818-6.044,4-9q1-5,2-10a77.145,77.145,0,0,0,5-25Zm518,1h32V309H605V162Zm362,0h32v57h1v-2l6-5v-1h2c0.33-.667.67-1.333,1-2l14-5c5.35-1.582,19.64.555,23,2v1h2v1h3c0.33,0.667.67,1.333,1,2l4,1,3,4q3.495,3,7,6,3.495,7,7,14v4h1v4h1v7h1q-0.495,10.5-1,21c-4.66,15.232-9,23.924-21,32-0.33.667-.67,1.333-1,2l-4,1v1h-2v1h-3v1h-4v1h-6v1h-7v-1l-10-1v-1h-3v-1l-4-1v-1h-2c-0.67-1-1.33-2-2-3h-2c-0.33-.667-0.67-1.333-1-2h-1c-0.33-1-.67-2-1-3l-3-2v14H967V162ZM140,180q-0.5,5-1,10a46.859,46.859,0,0,1,17,0l3,8,6,1c-0.582-2.347-.92-2.353-2-4h-1V184h-1q-0.5-4.5-1-9h-1q-0.5-2.5-1-5a12.71,12.71,0,0,0-5-1v-1l-11,3q-0.5,1-1,2l-3,1v4h1c2.281-3.944,7.559-6.034,14-6,0.909,1.083-.184.227,1,1h1l2,3h1c1.742,2.654,2.021,7.555,2,12h-1c0.306-8.951-1.58-13.353-11-13-1.714,2.035-2.245.832-4,2v1A7.938,7.938,0,0,1,140,180Zm6,10c-0.083,3.795.093,7.565-1,10h1a3.982,3.982,0,0,0,2,2V190h-2Zm377,14c15.487-.229,26.245.812,36,6l4,1v1l3,1q0.5,1,1,2h2l5,6,2,1v2l2,1v2l2,1v2h1v2h1v3h1v2h1v4h1v4h1q0.5,7,1,14h-1q-0.5,7.5-1,15c-6.827,20.087-19.21,29.816-40,36h-8v1l-17-1v-1h-5v-1h-3v-1h-3v-1h-2v-1h-2v-1h-2v-1h-2v-1h-2l-2-3h-2l-2-3-4-3v-2l-3-2v-2h-1l-2-6h-1q-0.5-3-1-6h-1v-3h-1q-0.5-12-1-24h1v-5h1v-4h1v-3h1v-3h1l2-6c2.481-3.911,6.739-6.8,10-10l2-3h2l1-2h2l1-2h2v-1h3v-1h2v-1l7-1v-1h6v-1Zm178,0c10.775-.159,20.633.182,28,3h3v1h2v1h3v1h2v1h2q0.5,1,1,2h2l2,3h2l3,4h1v2l4,3q0.5,2,1,4h1q1,3,2,6h1v3h1v4h1c0.932,2.971,2.182,21.986,1,26h-1v5h-1v3h-1v3h-1v3h-1v2h-1v2l-2,1v2l-2,1v2l-4,3-4,5h-2q-0.5,1-1,2l-3,1v1l-17,6h-8v1c-3.308.918-19.5-1.11-22-2v-1l-9-2v-1l-4-1q-0.5-1-1-2h-2q-0.5-1-1-2h-2l-5-6-3-2v-2l-2-1v-2l-2-1v-2h-1v-2h-1v-3h-1v-3h-1v-3h-1v-5c-0.941-3.177-2.343-16.4-1-21h1q1-6,2-12h1q1-3,2-6h1q0.5-2,1-4l4-3v-2l4-3v-1h2l2-3h2q0.5-1,1-2h2v-1h2v-1h3v-1h2v-1l7-1v-1h6v-1ZM912,309V242l-3-9c-1.776-.905-4.721-2.482-6-4-6.9-.115-10.14.988-15,2l-4,5h-1q-1,3-2,6h-1q-0.5,11-1,22v45H848c-2.042-5.576-1-15.737-1-23V239c-1.278-1.248-2.562-4.867-3-7-5.715-2.6-7.1-3.039-16-3-1.759,2-1.972.841-4,2v1h-2v1c-3.7,3.077-2.921,3.516-5,8h-1c-2.205,5.57-1,14.9-1,22v46H783V206h30v1h1c-0.118,3.6-.77,10.07,1,12v-2l6-5v-1h2q0.5-1,1-2h2v-1l4-1v-1l8-1v-1h14v1h5v1h3v1c7.888,3.862,11.389,6.905,15,15,1.135-.844.145,0.127,1-1l9-10h2q0.5-1,1-2l4-1v-1h3v-1h3v-1h4v-1c5.366-1.593,18.72.568,22,2v1h2v1l4,1q0.5,1,1,2l6,5c10.594,15.772,7.156,64.863,7,92C936.212,310.876,921.667,309.053,912,309Zm328,0h-30V296h-1v2c-2.25,1.506-2.91,4.49-5,6h-2c-0.67,1-1.33,2-2,3-2.18,1.394-5.3,1.035-8,2v1l-13,1v-1l-10-1v-1h-2v-1h-3v-1h-2q-5.505-5-11-10v-2c-0.67-.333-1.33-0.667-2-1v-2h-1v-3h-1v-3h-1V271c7.04-23.067,33.92-23.356,64-23,0.11-6.9-.99-10.14-2-15-2.53-1.51-4.87-4.007-8-5-6.65-2.111-26.09,2.295-30,4v1h-2v1h-3c-2.44,1.1-3.85,3.149-7,4q-4.005-11-8-22c3.51-.771,5.4-2.66,8-4h2v-1h3v-1h3v-1h3v-1h3v-1l8-1v-1h7v-1h18v1l10,1c7.35,2.624,16.19,8.827,20,15,0.33,1.667.67,3.333,1,5h1v2h1c2.61,6.679,2,17.813,2,27v54ZM1126,206V309h-31c-2.87-7.85-1-22.28-1-32V207C1101.79,204.124,1116.33,205.947,1126,206ZM100,208c0.442,4.523,2.4,5.124,4,8q0.5,2,1,4h1q0.5,1.5,1,3l2,1v2l3,2v2l4,3v2l2,1,9,10c1.135-.844.145,0.127,1-1,1.753-1.389-.378-0.3,1-2l2-1v-1l6-2c1.626-2.266-1.547-1.276,2-4v-1h6q0.5-1,1-2h5v-1c-8.475.1-13.96-1.946-20-4l-9-2v-1l-5-4v-3h-1c-1.483-1.866-1.229-2.2-4-3v-2h-1v-2h-1q-0.5-1-1-2h-9Zm13,0v3c2.128,1.212,2.177,2.252,5,3,0.725,4.538,2.744,7.962,7,9v1l7,1v1h4v1h4v1h4v1h10v1c4.844,1.18,8.812-4.182,12-2,2.5,0.67,1.618.544,3,2h1v2l4,2-2-3,5-4v-1l5-1v-1c1.513-.917,2.442-0.839,5-1,1.451,1.859,4.329,3.235,6,2h1v-2l2-1v-2h1v-2l2-1,3-9H113Zm45,5v5h3v5h2c-3.219,5.735-12.321,4.217-21,4-1.129-1.975-1.417-2.338-4-3v-3h5v-3h3v-4l7-1a1.774,1.774,0,0,0,2,1v-1h3Zm-10,2v2h3v-2h-3Zm8,2v-2h-3v1h1C155.139,217.139,154,216.4,156,217Zm-11,2v2h2v-2h-2Zm5,0v2h3v-2h-3Zm6,0v2h3v-2h-3Zm20,18h-4v-2c-3.726-1.069-2.681-2.064-5-4v-1h-5v1h-4v1a21.234,21.234,0,0,1,4,1v-1c3.185-.868,1.817-0.34,5,0a15.682,15.682,0,0,1,1,6h1q-0.5,2.5-1,5c3.2,0.826,2.9,1.179,3,5h2c1.337-2.311,3.217-3.214,5-5l7-8,3-2v-2h1l2-3-6-3c-0.513,1.53-.078,3.054-2,3v-1h-3v1h-2v1l-3,2c0.573,1.082,2.7,2.1,2,4h-1v2Zm340,44a8.469,8.469,0,0,1,4,2v1l5,1v1c7.394,2.361,16.692-2.049,21-3l3-4h1q1-3,2-6h1v-3c2.829-7.749,2.55-17.357,0-25v-4h-1q-0.5-2-1-4l-5-4q-0.5-1-1-2c-1.681-1.155-2.264-.023-4-2l-14-1c-12.269,3.778-16.994,11.754-17,28v12h1v4h1v2C513.245,276.425,515.15,277.857,516,281Zm189-53v1h-4v1c-16.462,3.229-16.963,37.78-8,50l2,1v1h2q0.5,1,1,2c3.78,2.306,18.6,3.461,22,0,11.866-2.815,15.268-25.026,11-38v-4h-1q-1-3-2-6l-4-3q-0.5-1-1-2c-1.684-1.154-2.255-.038-4-2Zm313,0v1h-5v1c-1.69.33-7.31,3.121-8,4v2c-0.67.333-1.33,0.667-2,1v2c-0.67.333-1.33,0.667-2,1v3c-4.874,12-3.024,36.952,9,40,4.59,5.413,16.92,2.307,23,1,2.46-4.036,7.04-6.463,9-11,0.33-2.666.67-5.334,1-8,3.75-12.807-1.32-31.478-11-34C1029.6,228.567,1023.05,227.954,1018,228Zm-871,6v2h-2v1c-1.4.188,0.384-.709-1-1h-4c-0.9,4.293-2.763,5.194-6,7h-2c-0.814.58-.859,2.122-2,3,0.574,2.01-.12.865,1,2l3,4h2l2,3h2l2,3h2l1,2c2.48,1.663,4.38,1.51,6,4,1.135-.844.145,0.127,1-1l16-11q0.5-3,1-6l-4-3v-1h1q-0.5-3-1-6h1v-2l-7,1v-1h-3v-1C155.466,232.9,149.5,234,147,234Zm37,5c-2.441,4.26-12.647,13.5-17,16v1c3.507,0.79,5.409,2.624,8,4h2v1h2v1h2v1h3v1h3v1h3v1h4v1h7v1h8v-1h7v-1l6-1v-1l4-1v-1l4-1,1-2h2l2-3h2l2-3h-1c-1.937,2.292-3.738,1.8-7,3-14.889,5.492-29.919-1.4-39-8l-2-3h-1v-2Zm-49,17v-2c-4.312-1.146-3.439-3.151-6-5h-2q-0.5-1-1-2c-2.408-2.277-5.558-6.042-9-7l-7,8h-2l-2,3h-2q-0.5,1-1,2c-3.544,2.234-20.471,7.285-28,5a94.037,94.037,0,0,1-10-4v1c1.135,0.844.145-.127,1,1l3,1,2,3h2v1h2v1h2v1h2v1h2v1h2v1h4v1c5.344,1.785,20.661,1.8,26,0v-1h4v-1l6-2v-1l6-2,1-2h2v-1Zm11-14h2v2h2v-2c2.782,0.56,2.067,1.583,4,2q0.5-1,1-2h1v1c2.041,1.34,1.878,1.637,2,5h3v3c-4.651,2.436-10.665,2.081-18,2-1.139-1.139,0-.4-2-1q-1-2-2-4h4v-1A8.278,8.278,0,0,0,146,242Zm0,4c1.139,1.139,0,.4,2,1C146.861,245.861,148,246.6,146,246Zm-21,40c7.358-.153,10.362,1.83,15,4-0.574,2.01.12,0.865-1,2-1.4,1.654-3.457,2.476-6,3v3l5,1v-1h5c1.248-3.334,1.047-9.175,1-14,2.013-2.232,1.088-17.331,1-22l-8-5-3,11h-1v2h-1l-3,9C127.53,281.678,125.922,282.165,125,286Zm32-24q0.5,18.5,1,37h1c1.705-1.583,6.727-1.1,10-1v-1l-3-2v-1h-2v-1c-1.475-1.364-1.349-.5-2-3,1.169-.6,1.541-1.725,2-2h2v-1c3.419-1.3,7.688,1.064,10-1,1.139-1.139.4,0,1-2-1.787-1.581-.875-1.945-2-4h-1v-2c-3.189-5.955-7.51-12.272-8-21C161.883,258.009,160.96,260.9,157,262Zm1053,1h-8v1h-13v1l-7,1c-0.33.667-.67,1.333-1,2-2.59,1.812-1.86-1.088-3,3-2.36,2.485-.58,9.259,0,12l6,5c4.16,0.2,10.3,1.484,13-1C1206.84,285.012,1210.24,275.269,1210,263ZM165,290v2c2.444,0.574,2.206,1.047,4,2v-3c-1.139-1.139-.4,0-1-2h-1C165.861,290.139,167,289.4,165,290Zm-29,2v-2l-3,1v1h3Zm6,9v3h1v-3h-1Zm17,0v2h1v-2h-1Z"/>
</svg>
