<svg xmlns="http://www.w3.org/2000/svg" width="503" height="503" viewBox="0 0 503 503">
  <defs>
    <style>
      .cls-1 {
        fill: #fff;
        stroke: #000;
        stroke-width: 1px;
        fill-rule: evenodd;
      }
    </style>
  </defs>
  <path id="Forma_1" data-name="Forma 1" class="cls-1" d="M266,387v28h1c8.35-9.1,16.819-12.149,35-12-0.747,19.413-14.484,34.6-36,30v29h-9V446c-4.96.191-9.446,0.153-12-2-1.517-1.581-1.587-2.042-2-5l3-1c2.5-1.931,6.477-2.054,11-2V421h-2c-3.678,5.56-16.086,8.012-25,5-12.014-4.059-22.985-12.846-26-26,7.241-1.956,18.695-8.253,30-5,9.112,2.622,15.208,9.97,23,14V389c-57.439.9-95.938-22.487-109-66-5.7-18.988-1.09-54.223,3-71,1.843-7.56-.819-14.795,2-21,1.519-3.344,6.5-3.389,8-6s0.869-9.611,3-13c1.48-2.354,7.334-4.793,8-6v-8c1.1-6.3,3.343-13.058,9-15,5.467-4.833,14.752-1.062,20-4,2.17-1.215,2.719-6.483,5-8,6.479-4.31,17.108-3.4,25-6,17.6-5.8,32.878-10.738,57-11,3.4,6.827,8.05,10.065,10,19,31.822,2.57,35.035,43.469,42,71v12c3.22,14.047,4.787,23.327,16,29a2.6,2.6,0,0,1-1,1l-13,14-9,35C322.319,360.134,301,386.531,266,387Zm12-225c-3.441,2.384-8.351,1.571-13,3-11.46,3.523-25.477,6.7-37,10-4.96,1.42-9.544.363-13,3,25.87,0.165,47.314-4.779,74-5v-1c-3.117-3.351-2.977-7.309-8-9C279.9,162.192,280.093,162.384,278,162Zm-97,44c16.673,0.1,34.308,3.685,50,2,2.07-7.6,7.019-14.055,16-15,6.019,6.117,8.051,9.578,12,18,16.907-.2,32.688,2.126,48,4,3.938,6.249,9.845,11.556,13,19,2.668,6.295,2.506,14.822,5,21l7,3c-1.734-4.712-.291-11.449-2-18-3.418-13.1-11.2-47.491-20-54-7.968-5.9-27.688-4.458-38-2H248c-18.078,4.451-40.767,5.677-63,6C183.659,195.373,181.329,198.857,181,206Zm55,35c13.633,1.328,33.872,8.427,43,15,5.537,3.987,7.888,11.442,14,15v-8c-4.229-5.331-5.072-13.593-9-19-4.744-6.529-14.156-13.614-21-18-3.355-2.15-6.842-2.836-9-6-3.368-4.937-4.678-15.366-10-15C237.088,212.08,235.96,227.212,236,241Zm-10-3a86.559,86.559,0,0,1,2-20h-8c-4.244-2.811-13.134.322-19-1-7.773-1.752-17.782-2.067-28-2v1h-1c-0.366,4.064-2.106,6.869-1,9,4.227,2.738,11.767,1.411,17,3C200.137,231.686,211.569,236.875,226,238Zm45-17c5.129,7.631,16.768,10.28,22,18,3.946,5.822,3.089,18.264,11,20,3.276-3.037,8.379-3.215,11-7-3.174-3.473-7.652-19.842-9-25C296.516,222.375,286.3,220.989,271,221Zm-94,15-14-2v1h-1c-1.058,21.763-10.068,53.978-5,76,2.654,11.531-.111,24.376,10,28,3.8,2.787,9.206.775,15,2,9.246,1.955,38.426,2.378,43-3-11.369-5.741-21.008-19.2-25-32q-1-7.5-2-15c-2.252-5.514-9.846-9.717-13-15C179.029,266,177.121,251.2,177,236Zm62,63v9c-13.514.106-19.251-6.232-30-8v2c3.172,4.038,3.144,10.637,6,15,7.566,11.56,20.707,20.1,40,20v10l-20-2c-17.351,4.075-40.26,7.95-61,4v2c5.167,1.622,7.277,5.284,11,8,9.5,6.932,19.65,14.225,32,18,13.856,4.235,33.568,3.3,47,0l14-1c22.258-6.5,38.438-25.7,47-46l7-30c2.524-5.685,8.147-9.241,10-16-6.237-2.331-6.378-9.1-10-14-3.769-5.1-12.053-6.013-21-6-3.812,5.911-11.642,9.852-14,17v25c-1.155,4.558-3.32,9.536-4,15a19.478,19.478,0,0,1-8-2,14.988,14.988,0,0,1-1-5c7.864-8.229,3.174-28.993-1-37-11.582-22.215-44.557-25.911-71-33-8.953-2.4-18.468-1.225-26-4v9c3.456,4.783,2.437,12.153,5,18C198.221,283.477,216.683,297.646,239,299Zm90-24q0.5,3,1,6l-3,1c-1.188.855-1.663,0.793-4,1l-1-3c-1.281-2.076-.49-2.268,0-5h7ZM222,404c-1.4,1.007-3.282.991-6,1v1c7.251,5.087,10.952,12.037,23,10,4.519-.764,6.164.379,8-3-0.865-1.059-.353-0.214-1-2C237.9,408.546,233.82,404.172,222,404Zm63,8c-4.473,4.556-10.413,6.421-14,12h7c4.862-4.046,9.885-5.048,12-12h-5Z"/>
</svg>
